<?xml version="1.0" encoding="UTF-8" standalone="no"?>
<svg
   xmlns:dc="http://purl.org/dc/elements/1.1/"
   xmlns:cc="http://creativecommons.org/ns#"
   xmlns:rdf="http://www.w3.org/1999/02/22-rdf-syntax-ns#"
   xmlns:svg="http://www.w3.org/2000/svg"
   xmlns="http://www.w3.org/2000/svg"
   xmlns:sodipodi="http://sodipodi.sourceforge.net/DTD/sodipodi-0.dtd"
   xmlns:inkscape="http://www.inkscape.org/namespaces/inkscape"
   inkscape:export-ydpi="532.27002"
   inkscape:export-xdpi="532.27002"
   inkscape:export-filename="D:\ALL_PROJECTS\javascript_projects\vuejs_projects\ozzaqdev\src\assets\contact.png"
   sodipodi:docname="contact.svg"
   inkscape:version="1.0 (4035a4fb49, 2020-05-01)"
   id="svg2008"
   version="1.1"
   viewBox="0 0 210 297"
   height="297mm"
   width="210mm">
  <defs
     id="defs2002">
    <clipPath
       clipPathUnits="userSpaceOnUse"
       id="clipPath1155">
      <path
         d="M 0,500 H 750 V 0 H 0 Z"
         id="path1153" />
    </clipPath>
    <clipPath
       clipPathUnits="userSpaceOnUse"
       id="clipPath1163">
      <path
         d="M 108.866,380.209 H 415.247 V 114.124 H 108.866 Z"
         id="path1161" />
    </clipPath>
    <clipPath
       clipPathUnits="userSpaceOnUse"
       id="clipPath1179">
      <path
         d="M 142.05,340.942 H 382.064 V 132.495 H 142.05 Z"
         id="path1177" />
    </clipPath>
    <clipPath
       clipPathUnits="userSpaceOnUse"
       id="clipPath1195">
      <path
         d="m 386.724,350.801 h 19.717 v -19.717 h -19.717 z"
         id="path1193" />
    </clipPath>
    <clipPath
       clipPathUnits="userSpaceOnUse"
       id="clipPath1211">
      <path
         d="m 168.62,363.806 h 22.864 V 340.942 H 168.62 Z"
         id="path1209" />
    </clipPath>
    <clipPath
       clipPathUnits="userSpaceOnUse"
       id="clipPath1227">
      <path
         d="m 96.822,147.542 h 29.53 v -29.529 h -29.53 z"
         id="path1225" />
    </clipPath>
    <clipPath
       clipPathUnits="userSpaceOnUse"
       id="clipPath1355">
      <path
         d="m 271.328,174.885 h 69.413 v -18.749 h -69.413 z"
         id="path1353" />
    </clipPath>
    <clipPath
       clipPathUnits="userSpaceOnUse"
       id="clipPath1467">
      <path
         d="M 137.032,216.343 H 246.805 V 134.875 H 137.032 Z"
         id="path1465" />
    </clipPath>
    <clipPath
       clipPathUnits="userSpaceOnUse"
       id="clipPath1491">
      <path
         d="M 137.012,251.138 H 246.371 V 203.995 H 137.012 Z"
         id="path1489" />
    </clipPath>
    <clipPath
       clipPathUnits="userSpaceOnUse"
       id="clipPath1523">
      <path
         d="M 153.435,191.305 H 246.26 V 135.633 H 153.435 Z"
         id="path1521" />
    </clipPath>
    <clipPath
       clipPathUnits="userSpaceOnUse"
       id="clipPath1547">
      <path
         d="m 165.762,175.615 h 68.17 v -37.888 h -68.17 z"
         id="path1545" />
    </clipPath>
  </defs>
  <sodipodi:namedview
     inkscape:window-maximized="0"
     inkscape:window-y="0"
     inkscape:window-x="26"
     inkscape:window-height="729"
     inkscape:window-width="1274"
     showgrid="false"
     inkscape:document-rotation="0"
     inkscape:current-layer="layer1"
     inkscape:document-units="mm"
     inkscape:cy="560"
     inkscape:cx="400"
     inkscape:zoom="0.34401141"
     inkscape:pageshadow="2"
     inkscape:pageopacity="0.0"
     borderopacity="1.0"
     bordercolor="#666666"
     pagecolor="#ffffff"
     id="base" />
  <metadata
     id="metadata2005">
    <rdf:RDF>
      <cc:Work
         rdf:about="">
        <dc:format>image/svg+xml</dc:format>
        <dc:type
           rdf:resource="http://purl.org/dc/dcmitype/StillImage" />
        <dc:title></dc:title>
      </cc:Work>
    </rdf:RDF>
  </metadata>
  <g
     id="layer1"
     inkscape:groupmode="layer"
     inkscape:label="Layer 1">
    <g
       id="g1149"
       transform="matrix(0.35277777,0,0,-0.35277777,18.890637,214.86747)">
      <g
         id="g1151"
         clip-path="url(#clipPath1155)">
        <g
           id="g1157">
          <g
             id="g1159" />
          <g
             id="g1171">
            <g
               clip-path="url(#clipPath1163)"
               opacity="0.410004"
               id="g1169">
              <g
                 transform="translate(415.0918,210.3857)"
                 id="g1167">
                <path
                   d="m 0,0 c 0.302,5.2 0.167,10.424 -0.42,15.598 -2.753,24.305 -15.223,47.225 -33.576,63.396 -6.548,5.77 -13.998,10.938 -18.259,18.554 -7.176,12.825 -6.633,27.565 -15.539,40.228 -8.916,12.678 -21.91,22.565 -36.564,27.642 -43.691,15.14 -104.861,-9.51 -99.353,-62.151 0.02,-0.189 0.041,-0.464 0.064,-0.811 0.732,-10.935 -7.85,-20.128 -18.772,-20.388 -40.311,-0.956 -75.011,-32.036 -82.435,-71.405 -4.775,-25.318 3.043,-53.069 21.564,-70.98 13.825,-13.371 32.373,-20.715 50.932,-25.762 37.209,-10.119 76.365,-12.24 114.731,-8.371 35.913,3.622 73.795,13.946 97.022,41.576 C -8.216,-38.135 -1.117,-19.233 0,0"
                   style="fill:#c5d9ff;fill-opacity:1;fill-rule:nonzero;stroke:none"
                   id="path1165" />
              </g>
            </g>
          </g>
        </g>
        <g
           id="g1173">
          <g
             id="g1175" />
          <g
             id="g1187">
            <g
               clip-path="url(#clipPath1179)"
               opacity="0.880005"
               id="g1185">
              <g
                 transform="translate(381.9414,207.9053)"
                 id="g1183">
                <path
                   d="m 0,0 c 0.237,4.073 0.131,8.166 -0.328,12.219 -2.157,19.041 -11.926,36.996 -26.303,49.664 -5.13,4.52 -10.966,8.569 -14.305,14.534 -5.621,10.047 -5.195,21.595 -12.172,31.515 -6.985,9.931 -17.164,17.676 -28.644,21.654 -34.227,11.86 -82.146,-7.45 -77.831,-48.689 0.015,-0.147 0.032,-0.362 0.05,-0.635 0.574,-8.566 -6.15,-15.768 -14.706,-15.97 -31.579,-0.75 -58.762,-25.098 -64.578,-55.938 -3.741,-19.834 2.384,-41.575 16.893,-55.605 10.83,-10.474 25.361,-16.228 39.899,-20.182 29.149,-7.927 59.823,-9.588 89.879,-6.557 28.133,2.837 57.81,10.925 76.004,32.57 C -6.436,-29.874 -0.875,-15.067 0,0"
                   style="fill:#c5d9ff;fill-opacity:1;fill-rule:nonzero;stroke:none"
                   id="path1181" />
              </g>
            </g>
          </g>
        </g>
        <g
           id="g1189">
          <g
             id="g1191" />
          <g
             id="g1203">
            <g
               clip-path="url(#clipPath1195)"
               opacity="0.309998"
               id="g1201">
              <g
                 transform="translate(406.4414,340.9424)"
                 id="g1199">
                <path
                   d="m 0,0 c 0,-5.445 -4.414,-9.859 -9.859,-9.859 -5.445,0 -9.859,4.414 -9.859,9.859 0,5.445 4.414,9.859 9.859,9.859 C -4.414,9.859 0,5.445 0,0"
                   style="fill:#c5d9ff;fill-opacity:1;fill-rule:nonzero;stroke:none"
                   id="path1197" />
              </g>
            </g>
          </g>
        </g>
        <g
           id="g1205">
          <g
             id="g1207" />
          <g
             id="g1219">
            <g
               clip-path="url(#clipPath1211)"
               opacity="0.309998"
               id="g1217">
              <g
                 transform="translate(191.4839,352.3745)"
                 id="g1215">
                <path
                   d="m 0,0 c 0,-6.314 -5.118,-11.432 -11.432,-11.432 -6.314,0 -11.432,5.118 -11.432,11.432 0,6.313 5.118,11.432 11.432,11.432 C -5.118,11.432 0,6.313 0,0"
                   style="fill:#c5d9ff;fill-opacity:1;fill-rule:nonzero;stroke:none"
                   id="path1213" />
              </g>
            </g>
          </g>
        </g>
        <g
           id="g1221">
          <g
             id="g1223" />
          <g
             id="g1235">
            <g
               clip-path="url(#clipPath1227)"
               opacity="0.309998"
               id="g1233">
              <g
                 transform="translate(126.3516,132.7773)"
                 id="g1231">
                <path
                   d="m 0,0 c 0,-8.154 -6.61,-14.765 -14.765,-14.765 -8.154,0 -14.765,6.611 -14.765,14.765 0,8.154 6.611,14.765 14.765,14.765 C -6.61,14.765 0,8.154 0,0"
                   style="fill:#c5d9ff;fill-opacity:1;fill-rule:nonzero;stroke:none"
                   id="path1229" />
              </g>
            </g>
          </g>
        </g>
        <g
           id="g1237"
           transform="translate(280.4175,301.6069)">
          <path
             d="m 0,0 c 0,-28.901 -23.429,-52.33 -52.33,-52.33 -28.901,0 -52.33,23.429 -52.33,52.33 0,28.901 23.429,52.33 52.33,52.33 C -23.429,52.33 0,28.901 0,0"
             style="fill:#af9cda;fill-opacity:1;fill-rule:nonzero;stroke:none"
             id="path1239" />
        </g>
        <g
           id="g1241"
           transform="translate(264.4233,263.9214)">
          <path
             d="m 0,0 c -0.128,0 -0.256,0.049 -0.354,0.146 -0.195,0.196 -0.195,0.512 0,0.708 9.79,9.789 15.182,22.805 15.182,36.649 0,13.844 -5.392,26.86 -15.182,36.649 -9.789,9.79 -22.805,15.181 -36.649,15.181 -13.844,0 -26.86,-5.391 -36.649,-15.181 -0.196,-0.195 -0.512,-0.195 -0.707,0 -0.196,0.196 -0.196,0.512 0,0.707 9.978,9.979 23.245,15.474 37.356,15.474 14.111,0 27.378,-5.495 37.357,-15.474 C 10.332,64.881 15.828,51.614 15.828,37.503 15.828,23.392 10.332,10.125 0.354,0.146 0.256,0.049 0.128,0 0,0"
             style="fill:#243762;fill-opacity:1;fill-rule:nonzero;stroke:none"
             id="path1243" />
        </g>
        <g
           id="g1245"
           transform="translate(267.9092,301.6069)">
          <path
             d="m 0,0 c 0,-21.993 -17.829,-39.822 -39.822,-39.822 -21.992,0 -39.821,17.829 -39.821,39.822 0,21.993 17.829,39.822 39.821,39.822 C -17.829,39.822 0,21.993 0,0"
             style="fill:#ffffff;fill-opacity:1;fill-rule:nonzero;stroke:none"
             id="path1247" />
        </g>
        <g
           id="g1249"
           transform="translate(228.0874,261.2852)">
          <path
             d="m 0,0 c -22.233,0 -40.321,18.088 -40.321,40.322 0,22.233 18.088,40.322 40.321,40.322 0.276,0 0.5,-0.224 0.5,-0.5 0,-0.277 -0.224,-0.5 -0.5,-0.5 -21.682,0 -39.321,-17.64 -39.321,-39.322 C -39.321,18.64 -21.682,1 0,1 0.276,1 0.5,0.776 0.5,0.5 0.5,0.224 0.276,0 0,0"
             style="fill:#243762;fill-opacity:1;fill-rule:nonzero;stroke:none"
             id="path1251" />
        </g>
        <g
           id="g1253"
           transform="translate(238.4043,293.9961)">
          <path
             d="m 0,0 h -10.833 c -2.222,0 -4.03,1.808 -4.03,4.03 v 15.019 c 0,1.933 1.567,3.5 3.5,3.5 1.933,0 3.5,-1.567 3.5,-3.5 L -7.863,7 H 0 C 1.933,7 3.5,5.433 3.5,3.5 3.5,1.567 1.933,0 0,0"
             style="fill:#243762;fill-opacity:1;fill-rule:nonzero;stroke:none"
             id="path1255" />
        </g>
        <g
           id="g1257"
           transform="translate(146.8423,283.4302)">
          <path
             d="m 0,0 56.372,-56.372 c 11.027,-11.027 28.905,-11.027 39.932,0 l 6.739,6.74 c 2.545,2.545 2.545,6.671 0,9.215 l -23.002,23.003 c -2.545,2.545 -6.671,2.545 -9.216,0 L 59.324,-28.915 c -0.9,-0.9 -2.359,-0.9 -3.259,0 L 28.17,-1.02 c -0.888,0.888 -0.888,2.328 0,3.216 l 11.342,11.342 c 2.545,2.545 2.545,6.67 0,9.215 L 15.886,46.379 c -2.513,2.513 -6.577,2.549 -9.134,0.079 l -6.4,-6.181 C -11.005,29.311 -11.163,11.163 0,0"
             style="fill:#243762;fill-opacity:1;fill-rule:nonzero;stroke:none"
             id="path1259" />
        </g>
        <g
           id="g1261"
           transform="translate(148.6074,322.5718)">
          <path
             d="m 0,0 31.675,-31.675 1.086,1.086 4.986,4.985 c 2.545,2.545 2.545,6.67 0,9.215 L 14.121,7.237 C 11.607,9.75 7.543,9.786 4.987,7.317 L -1.414,1.136 Z"
             style="fill:#ecf1f7;fill-opacity:1;fill-rule:nonzero;stroke:none"
             id="path1263" />
        </g>
        <g
           id="g1265"
           transform="translate(147.9492,323.7422)">
          <path
             d="m 0,0 1.012,-0.817 31.321,-31.322 5.718,5.718 c 1.137,1.136 1.762,2.648 1.762,4.254 0,1.607 -0.625,3.118 -1.762,4.254 L 14.426,5.713 C 12.12,8.02 8.337,8.052 5.992,5.787 Z m 32.333,-33.553 -32.009,32.01 -1.835,1.474 6.809,6.575 c 2.735,2.64 7.147,2.603 9.835,-0.086 l 23.625,-23.626 c 2.736,-2.735 2.736,-7.187 0,-9.922 z"
             style="fill:#243762;fill-opacity:1;fill-rule:nonzero;stroke:none"
             id="path1267" />
        </g>
        <g
           id="g1269"
           transform="translate(213.0439,259.2212)">
          <path
             d="m 0,0 31.675,-31.675 1.086,1.086 4.986,4.985 c 2.545,2.545 2.545,6.671 0,9.215 L 14.121,7.237 C 11.608,9.75 7.544,9.786 4.987,7.317 L -1.414,1.136 Z"
             style="fill:#ecf1f7;fill-opacity:1;fill-rule:nonzero;stroke:none"
             id="path1271" />
        </g>
        <g
           id="g1273"
           transform="translate(212.3857,260.3916)">
          <path
             d="m 0,0 1.012,-0.817 31.321,-31.322 5.719,5.718 c 1.136,1.137 1.761,2.648 1.761,4.254 0,1.607 -0.625,3.118 -1.761,4.254 L 14.426,5.713 C 12.12,8.018 8.337,8.052 5.992,5.787 Z m 32.333,-33.553 -32.009,32.01 -1.835,1.474 6.809,6.575 c 2.735,2.64 7.147,2.602 9.835,-0.086 l 23.626,-23.626 c 1.325,-1.325 2.054,-3.087 2.054,-4.961 0,-1.874 -0.729,-3.636 -2.054,-4.961 z"
             style="fill:#243762;fill-opacity:1;fill-rule:nonzero;stroke:none"
             id="path1275" />
        </g>
        <g
           id="g1277"
           transform="translate(151.0337,326.3066)">
          <path
             d="M 0,0 19.3,-19.3"
             style="fill:#ecf1f7;fill-opacity:1;fill-rule:nonzero;stroke:none"
             id="path1279" />
        </g>
        <g
           id="g1281"
           transform="translate(170.334,306.5063)">
          <path
             d="m 0,0 c -0.128,0 -0.256,0.049 -0.354,0.146 l -19.3,19.301 c -0.195,0.195 -0.195,0.511 0,0.707 0.196,0.195 0.512,0.195 0.707,0 L 0.354,0.854 C 0.549,0.658 0.549,0.342 0.354,0.146 0.256,0.049 0.128,0 0,0"
             style="fill:#243762;fill-opacity:1;fill-rule:nonzero;stroke:none"
             id="path1283" />
        </g>
        <g
           id="g1285"
           transform="translate(227.8057,249.5347)">
          <path
             d="M 0,0 19.301,-19.3"
             style="fill:#ecf1f7;fill-opacity:1;fill-rule:nonzero;stroke:none"
             id="path1287" />
        </g>
        <g
           id="g1289"
           transform="translate(247.1064,229.7344)">
          <path
             d="m 0,0 c -0.128,0 -0.256,0.049 -0.354,0.146 l -19.3,19.301 c -0.196,0.195 -0.196,0.511 0,0.707 0.195,0.195 0.511,0.195 0.707,0 L 0.354,0.854 C 0.549,0.658 0.549,0.342 0.354,0.146 0.256,0.049 0.128,0 0,0"
             style="fill:#243762;fill-opacity:1;fill-rule:nonzero;stroke:none"
             id="path1291" />
        </g>
        <g
           id="g1293"
           transform="translate(331.8008,131.0742)">
          <path
             d="m 0,0 -73.898,10.93 c -8.355,1.236 -14.127,9.011 -12.892,17.367 l 26.504,179.183 c 1.236,8.356 9.011,14.127 17.367,12.892 l 73.898,-10.931 c 8.355,-1.235 14.127,-9.011 12.892,-17.367 L 17.367,12.892 C 16.131,4.535 8.356,-1.236 0,0"
             style="fill:#243762;fill-opacity:1;fill-rule:nonzero;stroke:none"
             id="path1295" />
        </g>
        <g
           id="g1297"
           transform="translate(344.0073,151.9385)">
          <path
             d="M 0,0 -91.748,13.571 -66.72,182.779 25.028,169.208 Z"
             style="fill:#ecf1f7;fill-opacity:1;fill-rule:nonzero;stroke:none"
             id="path1299" />
        </g>
        <g
           id="g1301"
           transform="translate(367.1572,308.4497)">
          <path
             d="M 0,0 -91.749,13.57 -89.87,26.268 1.878,12.697 Z"
             style="fill:#af9cda;fill-opacity:1;fill-rule:nonzero;stroke:none"
             id="path1303" />
        </g>
        <g
           id="g1305"
           transform="translate(296.5674,153.208)">
          <path
             d="m 0,0 c -1.062,0 -2.092,-0.339 -2.961,-0.983 -1.07,-0.794 -1.766,-1.957 -1.961,-3.276 -0.195,-1.318 0.135,-2.634 0.929,-3.703 0.794,-1.07 1.957,-1.767 3.275,-1.962 2.725,-0.404 5.263,1.485 5.664,4.205 0.195,1.318 -0.135,2.633 -0.929,3.702 C 3.223,-0.946 2.06,-0.25 0.742,-0.055 0.494,-0.019 0.246,0 0,0 m 0.016,-10.978 c -0.291,0 -0.584,0.022 -0.88,0.066 -1.582,0.233 -2.979,1.069 -3.932,2.353 -0.954,1.286 -1.35,2.864 -1.115,4.447 0.234,1.582 1.07,2.978 2.354,3.931 1.285,0.953 2.866,1.353 4.445,1.115 C 2.47,0.7 3.867,-0.136 4.82,-1.42 5.773,-2.704 6.169,-4.283 5.936,-5.865 5.496,-8.836 2.933,-10.978 0.016,-10.978"
             style="fill:#ecf1f7;fill-opacity:1;fill-rule:nonzero;stroke:none"
             id="path1307" />
        </g>
        <g
           id="g1309"
           transform="translate(309.8374,339.1851)">
          <path
             d="m 0,0 c -0.197,0 -0.389,-0.063 -0.55,-0.183 -0.198,-0.147 -0.327,-0.362 -0.364,-0.607 -0.036,-0.245 0.025,-0.488 0.173,-0.687 0.147,-0.198 0.363,-0.328 0.608,-0.364 0.247,-0.037 0.488,0.026 0.687,0.173 0.198,0.147 0.327,0.362 0.363,0.606 0.037,0.246 -0.025,0.49 -0.172,0.688 C 0.598,-0.175 0.382,-0.046 0.138,-0.01 0.091,-0.003 0.045,0 0,0 m 0.003,-2.851 c -0.093,0 -0.188,0.007 -0.283,0.021 -0.509,0.075 -0.957,0.344 -1.264,0.757 -0.307,0.413 -0.434,0.921 -0.359,1.429 0.075,0.509 0.344,0.958 0.757,1.265 0.413,0.307 0.918,0.436 1.43,0.358 C 0.792,0.904 1.241,0.635 1.548,0.222 1.854,-0.191 1.982,-0.698 1.907,-1.207 V -1.208 C 1.765,-2.163 0.941,-2.851 0.003,-2.851"
             style="fill:#ecf1f7;fill-opacity:1;fill-rule:nonzero;stroke:none"
             id="path1311" />
        </g>
        <g
           id="g1313"
           transform="translate(316.231,338.2397)">
          <path
             d="m 0,0 c -0.451,0 -0.847,-0.331 -0.915,-0.791 -0.036,-0.244 0.025,-0.488 0.172,-0.687 0.148,-0.198 0.364,-0.327 0.608,-0.363 l 23.407,-3.462 c 0.505,-0.077 0.977,0.275 1.051,0.78 0.036,0.244 -0.025,0.488 -0.172,0.687 -0.148,0.198 -0.363,0.328 -0.608,0.364 L 0.136,-0.01 C 0.09,-0.003 0.045,0 0,0 m 23.412,-6.313 c -0.095,0 -0.19,0.006 -0.286,0.021 l -23.407,3.461 c -0.509,0.076 -0.958,0.345 -1.264,0.757 -0.307,0.413 -0.434,0.921 -0.359,1.43 0.075,0.509 0.344,0.957 0.757,1.264 0.413,0.307 0.923,0.433 1.429,0.359 l 23.407,-3.462 c 0.509,-0.075 0.958,-0.344 1.265,-0.757 0.306,-0.413 0.434,-0.921 0.358,-1.429 -0.075,-0.509 -0.344,-0.958 -0.756,-1.265 -0.336,-0.249 -0.734,-0.379 -1.144,-0.379"
             style="fill:#ecf1f7;fill-opacity:1;fill-rule:nonzero;stroke:none"
             id="path1315" />
        </g>
        <g
           id="g1317"
           transform="translate(344.3862,203.7109)">
          <path
             d="M 0,0 -64.002,9.467 C -65.044,9.621 -66.014,8.9 -66.168,7.858 l -2.456,-16.603 c -0.154,-1.043 0.566,-2.013 1.608,-2.166 l 54.719,-8.094 5.637,-7.775 1.004,6.793 2.642,-0.391 c 1.042,-0.154 2.012,0.566 2.166,1.607 L 1.608,-2.166 C 1.762,-1.124 1.042,-0.154 0,0"
             style="fill:#c5d9ff;fill-opacity:1;fill-rule:nonzero;stroke:none"
             id="path1319" />
        </g>
        <g
           id="g1321"
           transform="translate(332.0894,184.2061)">
          <path
             d="M 0,0 C -0.024,0 -0.049,0.002 -0.074,0.006 L -54.792,8.1 c -0.636,0.092 -1.198,0.428 -1.581,0.945 -0.383,0.517 -0.543,1.151 -0.449,1.788 l 2.456,16.604 c 0.195,1.313 1.418,2.236 2.734,2.029 l 14.791,-2.189 c 0.273,-0.04 0.462,-0.294 0.421,-0.567 -0.04,-0.273 -0.297,-0.462 -0.568,-0.421 l -14.79,2.189 c -0.769,0.107 -1.485,-0.42 -1.598,-1.188 l -2.457,-16.603 c -0.054,-0.373 0.039,-0.744 0.263,-1.045 0.224,-0.302 0.552,-0.498 0.924,-0.553 L 0.073,0.994 C 0.346,0.954 0.535,0.7 0.494,0.427 0.458,0.179 0.244,0 0,0"
             style="fill:#243762;fill-opacity:1;fill-rule:nonzero;stroke:none"
             id="path1323" />
        </g>
        <g
           id="g1325"
           transform="translate(354.5625,272.5117)">
          <path
             d="m 0,0 -64.002,9.466 c -1.042,0.155 -2.012,-0.565 -2.166,-1.607 l -2.456,-16.605 c -0.154,-1.042 0.566,-2.011 1.608,-2.166 l 54.719,-8.093 5.637,-7.775 1.005,6.793 2.641,-0.391 c 1.042,-0.154 2.012,0.566 2.166,1.607 L 1.608,-2.166 C 1.762,-1.124 1.042,-0.154 0,0"
             style="fill:#c5d9ff;fill-opacity:1;fill-rule:nonzero;stroke:none"
             id="path1327" />
        </g>
        <g
           id="g1329"
           transform="translate(348.2173,244.4453)">
          <path
             d="m 0,0 -6.233,8.598 -54.511,8.062 c -1.313,0.194 -2.223,1.421 -2.029,2.734 0.041,0.273 0.294,0.455 0.568,0.421 0.273,-0.04 0.462,-0.294 0.421,-0.567 -0.055,-0.372 0.038,-0.743 0.263,-1.045 0.223,-0.302 0.551,-0.498 0.923,-0.554 L -5.671,9.525 -0.63,2.572 0.269,8.647 3.405,8.183 c 0.37,-0.054 0.742,0.038 1.044,0.262 0.302,0.224 0.499,0.552 0.553,0.924 l 1.634,11.046 c 0.04,0.273 0.294,0.459 0.568,0.421 0.273,-0.04 0.462,-0.294 0.421,-0.567 L 5.992,9.223 C 5.898,8.587 5.562,8.025 5.045,7.642 4.529,7.259 3.893,7.1 3.258,7.194 L 1.111,7.511 Z"
             style="fill:#243762;fill-opacity:1;fill-rule:nonzero;stroke:none"
             id="path1331" />
        </g>
        <g
           id="g1333"
           transform="translate(273.5508,251.1177)">
          <path
             d="m 0,0 64.002,-9.466 c 1.042,-0.155 1.762,-1.124 1.608,-2.166 L 63.154,-28.237 C 63,-29.279 62.03,-29.999 60.988,-29.844 l -54.719,8.093 -7.646,-5.81 1.004,6.792 -2.641,0.391 c -1.042,0.154 -1.762,1.124 -1.608,2.166 l 2.456,16.604 C -2.012,-0.566 -1.042,0.154 0,0"
             style="fill:#af9cda;fill-opacity:1;fill-rule:nonzero;stroke:none"
             id="path1335" />
        </g>
        <g
           id="g1337"
           transform="translate(334.8232,220.752)">
          <path
             d="m 0,0 c -0.119,0 -0.238,0.009 -0.358,0.027 l -34.157,5.052 c -0.273,0.04 -0.462,0.294 -0.422,0.567 0.041,0.273 0.293,0.464 0.568,0.421 L -0.211,1.016 C 0.161,0.963 0.531,1.054 0.833,1.278 1.135,1.502 1.332,1.83 1.387,2.202 l 2.456,16.605 c 0.113,0.767 -0.419,1.484 -1.187,1.598 -0.273,0.04 -0.462,0.294 -0.421,0.568 0.04,0.272 0.294,0.459 0.568,0.421 1.313,-0.195 2.223,-1.42 2.029,-2.734 L 2.376,2.056 C 2.282,1.42 1.945,0.858 1.429,0.475 1.01,0.164 0.513,0 0,0"
             style="fill:#243762;fill-opacity:1;fill-rule:nonzero;stroke:none"
             id="path1339" />
        </g>
        <g
           id="g1341"
           transform="translate(344.0073,151.9385)">
          <path
             d="M 0,0 -91.748,13.571 -89.445,29.14 2.303,15.568 Z"
             style="fill:#ffffff;fill-opacity:1;fill-rule:nonzero;stroke:none"
             id="path1343" />
        </g>
        <g
           id="g1345"
           transform="translate(268.1021,171.2598)">
          <path
             d="m 0,0 c -0.451,-3.049 -3.288,-5.155 -6.337,-4.704 -3.049,0.451 -5.155,3.288 -4.704,6.337 0.452,3.049 3.289,5.155 6.337,4.704 C -1.655,5.886 0.451,3.049 0,0"
             style="fill:#c5d9ff;fill-opacity:1;fill-rule:nonzero;stroke:none"
             id="path1347" />
        </g>
        <g
           id="g1349">
          <g
             id="g1351" />
          <g
             id="g1363">
            <g
               clip-path="url(#clipPath1355)"
               opacity="0.330002"
               id="g1361">
              <g
                 transform="translate(335.1826,157.1787)"
                 id="g1359">
                <path
                   d="M 0,0 C 2.169,-0.315 4.194,1.185 4.515,3.353 4.67,4.403 4.407,5.451 3.774,6.304 3.141,7.156 2.214,7.712 1.164,7.866 l -59.46,8.796 c -2.17,0.317 -4.193,-1.183 -4.515,-3.351 -0.155,-1.051 0.108,-2.099 0.741,-2.953 0.633,-0.852 1.56,-1.408 2.611,-1.562 z m 0.584,-1.043 c -0.241,0 -0.485,0.018 -0.73,0.055 l -59.459,8.795 c -1.315,0.193 -2.476,0.888 -3.268,1.956 -0.792,1.067 -1.121,2.38 -0.927,3.694 0.402,2.713 2.94,4.603 5.651,4.193 L 1.31,8.855 C 4.024,8.455 5.905,5.921 5.504,3.206 5.139,0.737 3.009,-1.043 0.584,-1.043"
                   style="fill:#af9cda;fill-opacity:1;fill-rule:nonzero;stroke:none"
                   id="path1357" />
              </g>
            </g>
          </g>
        </g>
        <g
           id="g1365"
           transform="translate(282.9912,328.5068)">
          <path
             d="m 0,0 c -0.204,0 -0.402,-0.065 -0.568,-0.189 -0.206,-0.152 -0.34,-0.376 -0.377,-0.629 -0.038,-0.253 0.026,-0.506 0.178,-0.711 0.153,-0.206 0.376,-0.339 0.629,-0.377 0.518,-0.078 1.011,0.285 1.088,0.808 0.038,0.253 -0.026,0.505 -0.179,0.711 C 0.619,-0.182 0.396,-0.048 0.143,-0.011 0.095,-0.004 0.047,0 0,0 m 0.003,-2.916 c -0.094,0 -0.19,0.007 -0.287,0.021 -1.068,0.158 -1.808,1.155 -1.651,2.223 0.077,0.518 0.351,0.974 0.77,1.286 0.421,0.312 0.937,0.443 1.454,0.365 C 1.357,0.821 2.097,-0.176 1.939,-1.245 1.795,-2.216 0.957,-2.916 0.003,-2.916"
             style="fill:#ffffff;fill-opacity:1;fill-rule:nonzero;stroke:none"
             id="path1367" />
        </g>
        <g
           id="g1369"
           transform="translate(288.4048,327.7061)">
          <path
             d="m 0,0 c -0.467,0 -0.877,-0.342 -0.947,-0.818 -0.038,-0.253 0.026,-0.505 0.178,-0.711 0.153,-0.205 0.376,-0.339 0.629,-0.376 0.253,-0.038 0.506,0.025 0.711,0.178 0.206,0.152 0.339,0.375 0.377,0.629 C 0.985,-0.845 0.922,-0.592 0.77,-0.387 0.617,-0.181 0.394,-0.048 0.141,-0.01 0.094,-0.003 0.046,0 0,0 m 0.005,-2.916 c -0.097,0 -0.194,0.007 -0.291,0.021 -1.068,0.158 -1.808,1.155 -1.651,2.224 0.159,1.067 1.157,1.804 2.224,1.65 C 0.804,0.902 1.261,0.629 1.573,0.209 1.884,-0.211 2.014,-0.727 1.937,-1.245 1.86,-1.762 1.587,-2.218 1.167,-2.53 0.826,-2.783 0.422,-2.916 0.005,-2.916"
             style="fill:#ffffff;fill-opacity:1;fill-rule:nonzero;stroke:none"
             id="path1371" />
        </g>
        <g
           id="g1373"
           transform="translate(293.7124,326.9214)">
          <path
             d="m 0,0 c -0.204,0 -0.402,-0.065 -0.569,-0.189 -0.205,-0.153 -0.339,-0.376 -0.376,-0.629 -0.038,-0.253 0.026,-0.506 0.178,-0.711 0.152,-0.206 0.376,-0.34 0.629,-0.377 0.52,-0.073 1.01,0.285 1.088,0.807 0.077,0.523 -0.285,1.011 -0.808,1.088 C 0.095,-0.004 0.047,0 0,0 m 0.003,-2.917 c -0.095,0 -0.191,0.007 -0.288,0.021 -1.068,0.159 -1.808,1.157 -1.65,2.224 0.159,1.068 1.156,1.805 2.224,1.651 C 1.356,0.82 2.097,-0.177 1.939,-1.245 1.795,-2.216 0.957,-2.917 0.003,-2.917"
             style="fill:#ffffff;fill-opacity:1;fill-rule:nonzero;stroke:none"
             id="path1375" />
        </g>
        <g
           id="g1377"
           transform="translate(368.4014,307.7656)">
          <path
             d="m 0,0 c -0.024,0 -0.049,0.002 -0.074,0.005 l -84.927,12.562 c -0.273,0.04 -0.462,0.294 -0.422,0.568 0.04,0.273 0.293,0.461 0.568,0.421 L 0.073,0.995 C 0.346,0.954 0.535,0.7 0.494,0.427 0.458,0.179 0.244,0 0,0"
             style="fill:#243762;fill-opacity:1;fill-rule:nonzero;stroke:none"
             id="path1379" />
        </g>
        <g
           id="g1381"
           transform="translate(332.9961,199.8857)">
          <path
             d="m 0,0 c -0.024,0 -0.049,0.002 -0.074,0.006 l -45.314,6.702 c -0.273,0.04 -0.462,0.294 -0.421,0.567 0.04,0.274 0.29,0.468 0.568,0.421 L 0.073,0.994 C 0.346,0.954 0.535,0.7 0.494,0.427 0.458,0.179 0.244,0 0,0"
             style="fill:#ffffff;fill-opacity:1;fill-rule:nonzero;stroke:none"
             id="path1383" />
        </g>
        <g
           id="g1385"
           transform="translate(306.1689,198.3301)">
          <path
             d="M 0,0 C -0.024,0 -0.049,0.002 -0.074,0.006 L -19.36,2.858 c -0.273,0.04 -0.462,0.294 -0.422,0.568 0.04,0.272 0.29,0.464 0.568,0.421 L 0.073,0.994 C 0.346,0.954 0.535,0.7 0.494,0.427 0.458,0.179 0.244,0 0,0"
             style="fill:#ffffff;fill-opacity:1;fill-rule:nonzero;stroke:none"
             id="path1387" />
        </g>
        <g
           id="g1389"
           transform="translate(299.6704,194.1201)">
          <path
             d="M 0,0 C -0.024,0 -0.049,0.002 -0.074,0.006 L -13.61,2.008 c -0.273,0.04 -0.462,0.294 -0.421,0.567 0.04,0.273 0.298,0.464 0.568,0.421 L 0.073,0.994 C 0.346,0.954 0.535,0.7 0.494,0.427 0.458,0.179 0.244,0 0,0"
             style="fill:#ffffff;fill-opacity:1;fill-rule:nonzero;stroke:none"
             id="path1391" />
        </g>
        <g
           id="g1393"
           transform="translate(332.1968,194.4805)">
          <path
             d="m 0,0 c -0.024,0 -0.049,0.002 -0.074,0.006 l -19.932,2.947 c -0.273,0.04 -0.462,0.294 -0.421,0.568 0.04,0.272 0.291,0.464 0.568,0.42 L 0.073,0.994 C 0.346,0.954 0.535,0.7 0.494,0.427 0.458,0.179 0.244,0 0,0"
             style="fill:#ffffff;fill-opacity:1;fill-rule:nonzero;stroke:none"
             id="path1395" />
        </g>
        <g
           id="g1397"
           transform="translate(327.4634,237.4893)">
          <path
             d="m 0,0 c -0.024,0 -0.049,0.002 -0.074,0.006 l -45.314,6.702 c -0.273,0.04 -0.462,0.294 -0.422,0.567 0.04,0.274 0.291,0.467 0.568,0.421 L 0.073,0.994 C 0.346,0.954 0.535,0.7 0.494,0.427 0.458,0.179 0.244,0 0,0"
             style="fill:#ffffff;fill-opacity:1;fill-rule:nonzero;stroke:none"
             id="path1399" />
        </g>
        <g
           id="g1401"
           transform="translate(300.6362,235.9336)">
          <path
             d="M 0,0 C -0.024,0 -0.049,0.002 -0.074,0.006 L -19.36,2.858 c -0.273,0.04 -0.462,0.294 -0.422,0.568 0.041,0.272 0.295,0.46 0.568,0.421 L 0.073,0.994 C 0.346,0.954 0.535,0.7 0.494,0.427 0.458,0.179 0.244,0 0,0"
             style="fill:#ffffff;fill-opacity:1;fill-rule:nonzero;stroke:none"
             id="path1403" />
        </g>
        <g
           id="g1405"
           transform="translate(320.6763,227.7979)">
          <path
             d="m 0,0 c -0.025,0 -0.051,0.002 -0.077,0.006 l -39.108,6.067 c -0.273,0.042 -0.46,0.298 -0.418,0.571 0.043,0.272 0.3,0.459 0.571,0.418 L 0.076,0.994 C 0.349,0.952 0.536,0.696 0.494,0.424 0.455,0.177 0.242,0 0,0"
             style="fill:#ffffff;fill-opacity:1;fill-rule:nonzero;stroke:none"
             id="path1407" />
        </g>
        <g
           id="g1409"
           transform="translate(326.6636,232.083)">
          <path
             d="m 0,0 c -0.024,0 -0.049,0.002 -0.074,0.006 l -19.932,2.948 c -0.273,0.04 -0.462,0.294 -0.421,0.567 0.04,0.273 0.292,0.464 0.568,0.421 L 0.073,0.994 C 0.346,0.954 0.535,0.7 0.494,0.427 0.458,0.179 0.244,0 0,0"
             style="fill:#ffffff;fill-opacity:1;fill-rule:nonzero;stroke:none"
             id="path1411" />
        </g>
        <g
           id="g1413"
           transform="translate(281.77,313.5376)">
          <path
             d="m 0,0 64.002,-9.467 c 1.042,-0.154 1.762,-1.124 1.608,-2.166 L 63.154,-28.237 C 63,-29.279 62.03,-29.999 60.988,-29.845 l -54.719,8.094 -7.646,-5.811 1.004,6.793 -2.641,0.391 c -1.042,0.154 -1.762,1.124 -1.608,2.166 l 2.456,16.604 C -2.012,-0.566 -1.042,0.154 0,0"
             style="fill:#af9cda;fill-opacity:1;fill-rule:nonzero;stroke:none"
             id="path1415" />
        </g>
        <g
           id="g1417"
           transform="translate(344.9243,284.8008)">
          <path
             d="M 0,0 C -0.024,0 -0.049,0.002 -0.074,0.005 -0.347,0.046 -0.536,0.3 -0.495,0.573 L 1.961,17.177 C 2.016,17.549 1.923,17.92 1.699,18.222 1.475,18.524 1.146,18.72 0.774,18.775 l -39.737,5.878 c -0.273,0.04 -0.462,0.294 -0.421,0.568 0.04,0.273 0.298,0.455 0.568,0.421 L 0.921,19.765 C 1.557,19.67 2.118,19.334 2.501,18.818 2.885,18.302 3.044,17.667 2.95,17.031 L 0.494,0.427 C 0.458,0.179 0.244,0 0,0"
             style="fill:#243762;fill-opacity:1;fill-rule:nonzero;stroke:none"
             id="path1419" />
        </g>
        <g
           id="g1421"
           transform="translate(335.6826,299.9087)">
          <path
             d="m 0,0 c -0.024,0 -0.049,0.002 -0.074,0.005 l -45.314,6.703 c -0.273,0.041 -0.462,0.294 -0.422,0.568 0.04,0.273 0.29,0.459 0.568,0.421 L 0.073,0.995 C 0.346,0.954 0.535,0.7 0.494,0.427 0.458,0.179 0.244,0 0,0"
             style="fill:#ffffff;fill-opacity:1;fill-rule:nonzero;stroke:none"
             id="path1423" />
        </g>
        <g
           id="g1425"
           transform="translate(308.8555,298.353)">
          <path
             d="M 0,0 C -0.024,0 -0.049,0.002 -0.074,0.005 L -19.36,2.858 c -0.273,0.04 -0.462,0.294 -0.422,0.568 0.04,0.273 0.294,0.461 0.568,0.421 L 0.073,0.995 C 0.346,0.954 0.535,0.7 0.494,0.427 0.458,0.179 0.244,0 0,0"
             style="fill:#ffffff;fill-opacity:1;fill-rule:nonzero;stroke:none"
             id="path1427" />
        </g>
        <g
           id="g1429"
           transform="translate(328.8955,290.2178)">
          <path
             d="m 0,0 c -0.025,0 -0.051,0.002 -0.077,0.006 l -39.108,6.067 c -0.273,0.043 -0.46,0.298 -0.418,0.571 0.043,0.273 0.302,0.456 0.571,0.418 L 0.076,0.994 C 0.349,0.952 0.536,0.696 0.494,0.423 0.455,0.176 0.243,0 0,0"
             style="fill:#ffffff;fill-opacity:1;fill-rule:nonzero;stroke:none"
             id="path1431" />
        </g>
        <g
           id="g1433"
           transform="translate(334.8828,294.5034)">
          <path
             d="m 0,0 c -0.024,0 -0.049,0.002 -0.074,0.005 l -19.932,2.949 c -0.273,0.04 -0.462,0.294 -0.421,0.567 0.04,0.273 0.29,0.461 0.568,0.422 L 0.073,0.995 C 0.346,0.954 0.535,0.7 0.494,0.427 0.458,0.179 0.244,0 0,0"
             style="fill:#ffffff;fill-opacity:1;fill-rule:nonzero;stroke:none"
             id="path1435" />
        </g>
        <g
           id="g1437"
           transform="translate(343.2129,268.0503)">
          <path
             d="m 0,0 c -0.024,0 -0.049,0.002 -0.074,0.005 l -45.314,6.703 c -0.273,0.041 -0.462,0.294 -0.422,0.568 0.04,0.273 0.29,0.461 0.568,0.421 L 0.073,0.995 C 0.346,0.954 0.535,0.7 0.494,0.427 0.458,0.179 0.244,0 0,0"
             style="fill:#ffffff;fill-opacity:1;fill-rule:nonzero;stroke:none"
             id="path1439" />
        </g>
        <g
           id="g1441"
           transform="translate(316.3857,266.4946)">
          <path
             d="M 0,0 C -0.024,0 -0.049,0.002 -0.074,0.005 L -19.36,2.858 c -0.273,0.041 -0.462,0.295 -0.422,0.568 0.04,0.273 0.297,0.464 0.568,0.422 L 0.073,0.995 C 0.346,0.954 0.535,0.7 0.494,0.427 0.458,0.179 0.244,0 0,0"
             style="fill:#ffffff;fill-opacity:1;fill-rule:nonzero;stroke:none"
             id="path1443" />
        </g>
        <g
           id="g1445"
           transform="translate(309.8867,262.2852)">
          <path
             d="M 0,0 C -0.024,0 -0.049,0.001 -0.074,0.005 L -13.61,2.007 c -0.273,0.041 -0.462,0.295 -0.421,0.568 0.04,0.273 0.295,0.463 0.568,0.422 L 0.073,0.995 C 0.346,0.954 0.535,0.7 0.494,0.427 0.458,0.179 0.244,0 0,0"
             style="fill:#ffffff;fill-opacity:1;fill-rule:nonzero;stroke:none"
             id="path1447" />
        </g>
        <g
           id="g1449"
           transform="translate(342.4131,262.645)">
          <path
             d="m 0,0 c -0.024,0 -0.049,0.002 -0.074,0.005 l -19.932,2.949 c -0.273,0.04 -0.462,0.294 -0.421,0.567 0.04,0.273 0.29,0.464 0.568,0.422 L 0.073,0.995 C 0.346,0.954 0.535,0.7 0.494,0.427 0.458,0.179 0.244,0 0,0"
             style="fill:#ffffff;fill-opacity:1;fill-rule:nonzero;stroke:none"
             id="path1451" />
        </g>
        <g
           id="g1453"
           transform="translate(251.0703,146.4414)">
          <path
             d="m 0,0 -102.655,-11.566 c -1.972,-0.222 -3.75,1.196 -3.972,3.169 l -7.41,65.762 c -0.012,0.105 0.063,0.198 0.167,0.21 L -4.475,69.9 c 0.104,0.012 0.198,-0.063 0.209,-0.167 L 3.146,3.945 C 3.367,1.987 1.958,0.221 0,0"
             style="fill:#f7a9b4;fill-opacity:1;fill-rule:nonzero;stroke:none"
             id="path1455" />
        </g>
        <g
           id="g1457"
           transform="translate(137.5649,203.5547)">
          <path
             d="m 0,0 7.375,-65.455 c 0.19,-1.694 1.718,-2.925 3.419,-2.728 l 102.655,11.567 0.056,-0.497 -0.056,0.497 c 0.815,0.092 1.545,0.495 2.056,1.136 0.511,0.64 0.742,1.442 0.65,2.256 l -7.377,65.48 z m 10.446,-69.202 c -2.054,0 -3.83,1.548 -4.065,3.636 l -7.41,65.762 c -0.042,0.378 0.231,0.72 0.608,0.763 l 109.395,12.325 c 0.383,0.043 0.72,-0.229 0.762,-0.607 l 7.413,-65.789 c 0.122,-1.079 -0.185,-2.142 -0.862,-2.992 -0.678,-0.849 -1.646,-1.384 -2.725,-1.506 L 10.906,-69.177 c -0.155,-0.017 -0.308,-0.025 -0.46,-0.025"
             style="fill:#243762;fill-opacity:1;fill-rule:nonzero;stroke:none"
             id="path1459" />
        </g>
        <g
           id="g1461">
          <g
             id="g1463" />
          <g
             id="g1475">
            <g
               clip-path="url(#clipPath1467)"
               opacity="0.289993"
               id="g1473">
              <g
                 transform="translate(246.2598,146.4414)"
                 id="g1471">
                <path
                   d="m 0,0 -92.824,-11.566 c -1.972,-0.222 28.764,39.203 28.542,41.174 l -44.945,27.757 c -0.011,0.105 0.063,0.198 0.167,0.21 L 0.335,69.9 c 0.104,0.012 0.198,-0.063 0.21,-0.167 L -36.878,32.696 C -36.658,30.738 1.958,0.221 0,0"
                   style="fill:#243762;fill-opacity:1;fill-rule:nonzero;stroke:none"
                   id="path1469" />
              </g>
            </g>
          </g>
        </g>
        <g
           id="g1477"
           transform="translate(137.2002,204.0166)">
          <path
             d="m 0,0 45.238,44.739 c 2.698,2.675 6.877,3.153 10.108,1.154 l 53.771,-33.395 c 0.091,-0.057 0.059,-0.197 -0.048,-0.21 L -0.188,-0.021"
             style="fill:#f7a9b4;fill-opacity:1;fill-rule:nonzero;stroke:none"
             id="path1479" />
        </g>
        <g
           id="g1481"
           transform="translate(188.2202,250.6445)">
          <path
             d="M 0,0 C -1.979,0 -3.938,-0.765 -5.43,-2.244 L -49.644,-45.97 56.888,-33.968 4.062,-1.16 C 2.803,-0.38 1.396,0 0,0 m -51.152,-47.146 -0.083,0.736 -0.137,0.138 0.109,0.107 -0.001,0.013 0.015,0.002 45.116,44.617 C -3.261,1.314 1.148,1.818 4.589,-0.31 L 58.36,-33.705 c 0.222,-0.137 0.332,-0.4 0.276,-0.654 -0.057,-0.255 -0.269,-0.447 -0.528,-0.477 z"
             style="fill:#243762;fill-opacity:1;fill-rule:nonzero;stroke:none"
             id="path1483" />
        </g>
        <g
           id="g1485">
          <g
             id="g1487" />
          <g
             id="g1499">
            <g
               clip-path="url(#clipPath1491)"
               opacity="0.289993"
               id="g1497">
              <g
                 transform="translate(137.2002,204.0166)"
                 id="g1495">
                <path
                   d="m 0,0 45.238,44.739 c 2.698,2.675 6.877,3.153 10.108,1.154 l 53.771,-33.395 c 0.091,-0.057 0.059,-0.197 -0.048,-0.21 L -0.188,-0.021"
                   style="fill:#243762;fill-opacity:1;fill-rule:nonzero;stroke:none"
                   id="path1493" />
              </g>
            </g>
          </g>
        </g>
        <g
           id="g1501"
           transform="translate(187.4409,182.9453)">
          <path
             d="M 0,0 -34.005,-47.313 58.819,-36.854 15.138,1.706 C 10.581,5.729 3.547,4.936 0,0"
             style="fill:#f7a9b4;fill-opacity:1;fill-rule:nonzero;stroke:none"
             id="path1503" />
        </g>
        <g
           id="g1505"
           transform="translate(195.7769,186.7217)">
          <path
             d="M 0,0 C -0.362,0 -0.726,-0.02 -1.089,-0.061 -3.828,-0.369 -6.321,-1.83 -7.93,-4.068 L -41.278,-50.466 49.308,-40.26 6.471,-2.445 C 4.679,-0.863 2.368,0 0,0 m -43.405,-51.712 34.663,48.228 0.406,-0.292 -0.406,0.292 c 1.773,2.466 4.522,4.077 7.541,4.417 3.019,0.339 6.056,-0.619 8.334,-2.628 l 44.525,-39.307 z"
             style="fill:#243762;fill-opacity:1;fill-rule:nonzero;stroke:none"
             id="path1507" />
        </g>
        <g
           id="g1509"
           transform="translate(142.7231,236.4277)">
          <path
             d="m 0,0 71.5,8.056 c 4.687,0.528 8.858,-2.342 9.316,-6.41 L 85.412,-39.142 65.528,-57.417 39.254,-60.378 13.302,-44.146 8.85,-4.629 Z"
             style="fill:#ffffff;fill-opacity:1;fill-rule:nonzero;stroke:none"
             id="path1511" />
        </g>
        <g
           id="g1513"
           transform="translate(156.4946,192.5781)">
          <path
             d="m 0,0 25.6,-16.012 25.939,2.923 19.576,17.993 -4.567,40.535 c -0.205,1.822 -1.22,3.446 -2.859,4.573 -1.66,1.142 -3.756,1.636 -5.904,1.396 l -69.877,-7.873 7.637,-3.994 z m 25.366,-17.045 -26.305,16.453 -4.45,39.492 -6.809,5.63 69.87,7.872 c 2.387,0.268 4.725,-0.287 6.584,-1.566 1.881,-1.294 3.048,-3.171 3.286,-5.285 L 72.166,4.512 51.975,-14.046 Z"
             style="fill:#243762;fill-opacity:1;fill-rule:nonzero;stroke:none"
             id="path1515" />
        </g>
        <g
           id="g1517">
          <g
             id="g1519" />
          <g
             id="g1531">
            <g
               clip-path="url(#clipPath1523)"
               opacity="0.289993"
               id="g1529">
              <g
                 transform="translate(187.4409,187.0283)"
                 id="g1527">
                <path
                   d="M 0,0 -34.005,-51.396 58.819,-40.938 15.138,1.705 C 10.581,5.728 3.547,4.936 0,0"
                   style="fill:#243762;fill-opacity:1;fill-rule:nonzero;stroke:none"
                   id="path1525" />
              </g>
            </g>
          </g>
        </g>
        <g
           id="g1533"
           transform="translate(187.4409,182.9453)">
          <path
             d="M 0,0 -34.005,-47.313 58.819,-36.854 15.138,1.706 C 10.581,5.729 3.547,4.936 0,0"
             style="fill:#f7a9b4;fill-opacity:1;fill-rule:nonzero;stroke:none"
             id="path1535" />
        </g>
        <g
           id="g1537"
           transform="translate(195.7769,186.7217)">
          <path
             d="M 0,0 C -0.362,0 -0.726,-0.02 -1.089,-0.061 -3.828,-0.369 -6.321,-1.83 -7.93,-4.068 L -41.278,-50.466 49.308,-40.26 6.471,-2.445 C 4.679,-0.863 2.368,0 0,0 m -43.405,-51.712 34.663,48.228 0.406,-0.292 -0.406,0.292 c 1.773,2.466 4.522,4.077 7.541,4.417 3.019,0.339 6.056,-0.619 8.334,-2.628 l 44.525,-39.307 z"
             style="fill:#243762;fill-opacity:1;fill-rule:nonzero;stroke:none"
             id="path1539" />
        </g>
        <g
           id="g1541">
          <g
             id="g1543" />
          <g
             id="g1555">
            <g
               clip-path="url(#clipPath1547)"
               opacity="0.350006"
               id="g1553">
              <g
                 transform="translate(190.7363,172.4736)"
                 id="g1551">
                <path
                   d="m 0,0 -24.974,-34.746 68.17,7.681 L 11.117,1.253 C 7.771,4.207 2.605,3.625 0,0"
                   style="fill:#ecf1f7;fill-opacity:1;fill-rule:nonzero;stroke:none"
                   id="path1549" />
              </g>
            </g>
          </g>
        </g>
        <g
           id="g1557"
           transform="translate(137.2407,203.9268)">
          <path
             d="M 0,0 44.737,-27.877"
             style="fill:#f7a9b4;fill-opacity:1;fill-rule:nonzero;stroke:none"
             id="path1559" />
        </g>
        <g
           id="g1561"
           transform="translate(181.7129,175.625)">
          <path
             d="m 0,0 -44.737,27.877 0.529,0.85 L 0.529,0.85 Z"
             style="fill:#243762;fill-opacity:1;fill-rule:nonzero;stroke:none"
             id="path1563" />
        </g>
        <g
           id="g1565"
           transform="translate(246.7939,216.2705)">
          <path
             d="M 0,0 -37.413,-37.133"
             style="fill:#f7a9b4;fill-opacity:1;fill-rule:nonzero;stroke:none"
             id="path1567" />
        </g>
        <g
           id="g1569"
           transform="translate(209.7334,178.7832)">
          <path
             d="m 0,0 -0.704,0.709 37.412,37.133 0.705,-0.709 z"
             style="fill:#243762;fill-opacity:1;fill-rule:nonzero;stroke:none"
             id="path1571" />
        </g>
        <g
           id="g1573"
           transform="translate(153.5527,213.5879)">
          <path
             d="m 0,0 -12.479,-1.406 -2.005,17.803 c -0.37,3.29 1.995,6.256 5.284,6.626 l 0.568,0.064 c 3.289,0.371 6.256,-1.995 6.626,-5.284 z"
             style="fill:#ecf1f7;fill-opacity:1;fill-rule:nonzero;stroke:none"
             id="path1575" />
        </g>
        <g
           id="g1577"
           transform="translate(145.603,236.2129)">
          <path
             d="m 0,0 c -0.208,0 -0.417,-0.012 -0.626,-0.035 l -0.568,-0.064 c -1.458,-0.164 -2.765,-0.885 -3.68,-2.033 -0.914,-1.146 -1.328,-2.582 -1.163,-4.04 l 1.949,-17.307 11.485,1.294 -1.95,17.307 C 5.283,-3.42 4.561,-2.113 3.413,-1.198 2.431,-0.415 1.238,0 0,0 m -4.97,-24.584 -2.061,18.301 c -0.194,1.723 0.294,3.419 1.376,4.775 1.081,1.356 2.626,2.209 4.349,2.404 l 0.568,0.063 c 1.725,0.189 3.419,-0.294 4.775,-1.376 1.356,-1.081 2.21,-2.626 2.404,-4.35 l 2.061,-18.298 z"
             style="fill:#243762;fill-opacity:1;fill-rule:nonzero;stroke:none"
             id="path1579" />
        </g>
        <g
           id="g1581"
           transform="translate(162.0254,222.8564)">
          <path
             d="m 0,0 c -0.251,0 -0.468,0.188 -0.497,0.444 -0.03,0.275 0.167,0.522 0.441,0.553 L 51.75,6.834 C 52.027,6.867 52.271,6.668 52.303,6.393 52.333,6.118 52.136,5.871 51.862,5.84 L 0.057,0.003 C 0.038,0.001 0.019,0 0,0"
             style="fill:#243762;fill-opacity:1;fill-rule:nonzero;stroke:none"
             id="path1583" />
        </g>
        <g
           id="g1585"
           transform="translate(164.0098,205.2451)">
          <path
             d="m 0,0 c -0.251,0 -0.468,0.188 -0.497,0.444 -0.03,0.275 0.167,0.522 0.441,0.553 L 51.749,6.833 C 52.021,6.866 52.271,6.667 52.302,6.392 52.333,6.117 52.136,5.87 51.861,5.839 L 0.057,0.003 C 0.038,0.001 0.019,0 0,0"
             style="fill:#243762;fill-opacity:1;fill-rule:nonzero;stroke:none"
             id="path1587" />
        </g>
        <g
           id="g1589"
           transform="translate(163.0059,214.1523)">
          <path
             d="m 0,0 c -0.251,0 -0.468,0.188 -0.497,0.444 -0.03,0.275 0.167,0.522 0.441,0.553 L 22.331,3.52 C 22.604,3.548 22.854,3.353 22.884,3.078 22.915,2.804 22.718,2.557 22.443,2.525 L 0.057,0.003 C 0.038,0.001 0.019,0 0,0"
             style="fill:#243762;fill-opacity:1;fill-rule:nonzero;stroke:none"
             id="path1591" />
        </g>
        <g
           id="g1593"
           transform="translate(191.2539,217.3359)">
          <path
             d="m 0,0 c -0.251,0 -0.468,0.188 -0.497,0.444 -0.03,0.275 0.167,0.522 0.441,0.553 L 23.501,3.65 C 23.777,3.677 24.023,3.484 24.055,3.209 24.085,2.935 23.888,2.688 23.614,2.656 L 0.057,0.003 C 0.038,0.001 0.019,0 0,0"
             style="fill:#243762;fill-opacity:1;fill-rule:nonzero;stroke:none"
             id="path1595" />
        </g>
        <g
           id="g1597"
           transform="translate(165.1348,195.2578)">
          <path
             d="m 0,0 c -0.251,0 -0.468,0.188 -0.497,0.444 -0.03,0.275 0.167,0.522 0.441,0.553 L 22.331,3.52 C 22.603,3.547 22.853,3.353 22.884,3.078 22.915,2.804 22.718,2.557 22.443,2.525 L 0.057,0.003 C 0.038,0.001 0.019,0 0,0"
             style="fill:#243762;fill-opacity:1;fill-rule:nonzero;stroke:none"
             id="path1599" />
        </g>
      </g>
    </g>
  </g>
</svg>
